<?xml version="1.0" encoding="UTF-8"?>
<svg id="Layer_1" data-name="Layer 1" xmlns="http://www.w3.org/2000/svg" version="1.1" viewBox="0 0 103 104.45">
  <defs>
    <style>
      .cls-1 {
        fill: #fefcf6;
        stroke-width: 0px;
      }
    </style>
  </defs>
  <path class="cls-1" d="M102.44,71.95c-.35.98-.75,1.94-1.14,2.9-1.08,2.48-3.19,4.37-5.76,5.13-.87.27-1.77.4-2.66.4-.09,0-.15-.02-.22-.02-5.1,7.75-12.18,13.83-20.57,17.69.03.78-.09,1.55-.4,2.26-.55,1.28-1.62,2.26-2.93,2.72-1.36.47-2.8.89-4.21,1.27-.4.1-.81.15-1.21.15-.96,0-1.91-.27-2.72-.79-1.18-.75-1.99-1.97-2.24-3.33-.46-2.56,1.16-5.09,3.71-5.74,1.13-.29,2.27-.62,3.37-1.01,1.94-.67,4.05-.06,5.36,1.38,7.36-3.42,13.65-8.69,18.29-15.38-.4-.18-.81-.4-1.19-.64-1.63-1.07-2.12-3.22-1.13-4.92,2.09-3.56,3.6-7.39,4.53-11.41.44-1.92,2.27-3.15,4.2-2.8.46.09.87.2,1.3.34.34-2.23.54-4.48.54-6.75,0-10.98-3.91-21.51-11.01-29.82-2.14,1.1-4.77.81-6.64-.91-7.71-7.07-17.73-10.97-28.17-10.97s-20.45,3.89-28.17,10.97c-1.15,1.04-2.58,1.59-4.01,1.59-.91,0-1.8-.26-2.63-.67-7.11,8.31-11.04,18.83-11.04,29.82,0,2.26.22,4.52.54,6.74.42-.15.86-.27,1.3-.35,1.92-.35,3.76.87,4.2,2.8.95,4.13,2.52,8.07,4.7,11.73,1.01,1.68.54,3.84-1.08,4.92-1.53.99-3.28,1.51-5.05,1.51-.87,0-1.74-.14-2.6-.37-2.56-.76-4.65-2.58-5.73-5.01-.5-1.16-.99-2.35-1.42-3.56-.91-2.49-.66-5.25.67-7.56.49-.87,1.13-1.63,1.85-2.29-.49-2.81-.76-5.7-.76-8.55,0-11.86,4.26-23.23,11.97-32.16-.47-.87-.78-1.85-.78-2.84,0-1.62.67-3.16,1.85-4.25C25.25,5.02,38.09,0,51.52,0s26.26,5.02,36.15,14.14c1.18,1.08,1.85,2.63,1.83,4.23,0,1.01-.29,1.99-.78,2.84,7.73,8.95,11.98,20.31,11.98,32.18,0,2.88-.26,5.78-.76,8.59.72.66,1.35,1.42,1.83,2.27,1.36,2.34,1.6,5.15.67,7.7Z"/>
  <path class="cls-1" d="M51.52,19.64c-18.6,0-33.71,15.15-33.71,33.75,0,11.41,5.65,21.85,15.13,28.12v9.64c0,.58.29,1.11.78,1.42.27.17.59.27.91.27.23,0,.49-.06.7-.17l12.26-5.78c1.31.15,2.63.26,3.92.26,18.58,0,33.71-15.15,33.71-33.75s-15.13-33.75-33.71-33.75ZM51.52,83.76c-1.31,0-2.66-.1-4.01-.27-.03-.02-.09,0-.14,0-.1,0-.22.02-.34.03-.12.02-.22.03-.34.09-.03.02-.09,0-.12.02l-10.28,4.85v-7.87s-.03-.1-.03-.15c-.02-.14-.03-.26-.09-.37-.03-.1-.06-.18-.12-.27-.05-.1-.1-.18-.18-.27-.06-.1-.15-.17-.26-.26-.05-.03-.06-.09-.12-.12-8.98-5.59-14.34-15.23-14.34-25.79,0-16.75,13.61-30.37,30.34-30.37s30.34,13.62,30.34,30.37-13.59,30.38-30.33,30.38Z"/>
  <path class="cls-1" d="M70.24,70.55c-1.21,1.75-3.2,2.8-5.33,2.8h-26.8c-2.12,0-4.11-1.04-5.31-2.8-1.21-1.77-1.48-4.01-.7-6.02,2.81-7.33,9.89-11.53,19.42-11.53s16.61,4.2,19.42,11.53c.78,2.01.5,4.25-.7,6.02Z"/>
  <path class="cls-1" d="M60.6,40.04c0,5.02-4.08,9.1-9.1,9.1s-9.1-4.08-9.1-9.1,4.08-9.12,9.1-9.12,9.1,4.1,9.1,9.12Z"/>
</svg>