<?xml version="1.0" encoding="UTF-8"?>
<svg id="Layer_1" data-name="Layer 1" xmlns="http://www.w3.org/2000/svg" version="1.1" viewBox="0 0 21.39 17.2">
  <defs>
    <style>
      .cls-1 {
        fill: none;
        stroke: #231f20;
        stroke-linecap: round;
        stroke-linejoin: round;
        stroke-width: .45px;
      }
    </style>
  </defs>
  <path class="cls-1" d="M18.25,1.48v3.59h-1.38l-.11-.85c-2.89-1.27-5.44,0-5.44,0v.85h-1.26v-.85s-2.55-1.27-5.44,0l-.11.85h-1.38V1.48c0-.82.66-1.48,1.48-1.48h12.15c.82,0,1.48.66,1.48,1.48Z"/>
  <path class="cls-1" d="M21.39,11.5H0l3.14-6.44h1.38l-.17,1.4s2.68.76,5.72,0v-1.4h1.26v1.4c3.04.76,5.72,0,5.72,0l-.17-1.4h1.38l3.14,6.44Z"/>
  <rect class="cls-1" x="0" y="11.5" width="21.39" height="4.58"/>
  <rect class="cls-1" x="1.21" y="16.08" width="2.12" height="1.13"/>
  <rect class="cls-1" x="18.06" y="16.08" width="2.12" height="1.13" transform="translate(38.24 33.28) rotate(180)"/>
</svg>