<?xml version="1.0" encoding="UTF-8"?>
<svg id="Layer_1" data-name="Layer 1" xmlns="http://www.w3.org/2000/svg" version="1.1" viewBox="0 0 559.51 558.89">
  <defs>
    <style>
      .cls-1 {
        fill: #000;
        stroke-width: 0px;
      }
    </style>
  </defs>
  <path class="cls-1" d="M558.81,197.52c-.45-36.56-20.96-57-57.84-57.56-12.39-.21-24.77-.04-38.42-.04,1.92-3.95,2.17-5.18,2.9-5.88,33.13-31.28,31.56-89.01-7.8-118.4-38.35-28.66-91.53-16.86-119.35,26.49-5.67,8.82-11.2,17.74-16.76,26.63-13.19,20.92-26.35,41.88-41.01,65.15-6.54-10.18-11.27-17.42-15.88-24.74-15.54-24.63-30.48-49.68-46.74-73.86C200.49,9.42,174.77-1.99,144.19.71c-31.35,2.76-55.25,18.68-66.62,48.91-12.28,32.71-4.41,61.83,23.27,90.31-15.19,0-26.07-.04-36.95,0-30.4.11-49.37,10.99-57.94,33.13-11.23,29.11-4.16,76.77,13.75,92.27,1.75,1.54,3.5,3.36,5.6,4.16,10.71,3.95,12,11.97,11.93,22.25-.38,62.91-.28,125.85-.17,188.8.07,49.79,28.31,78.23,77.92,78.27,110.14.1,220.29.1,330.43,0,49.96-.04,78.34-28.2,78.41-77.78.11-62.35.25-124.7-.17-187.05-.07-11.3,1.54-19.31,12.81-25.51,14.73-8.12,21.17-22.85,22.11-39.47.59-10.46.38-20.99.24-31.49ZM87.02,84.57c-3.32-26.35,12.39-53.22,36.98-63.33,28.97-11.93,62.35-4.55,80.09,20.68,20.12,28.55,37.93,58.71,56.65,88.21,1.43,2.27,2.27,4.93,4.23,9.24-43.67,0-85.48,1.68-127.08-.59-27.82-1.5-47.23-25.12-50.87-54.2ZM271.59,542.09c-58.47,0-115.53.84-172.56-.35-25.44-.52-46.12-21.34-46.64-48.39-1.36-70.43-.45-140.93-.45-212.91h219.66v261.65ZM271.9,262.39h-35.55c-60.04,0-120.08.07-180.16-.04-26.14-.03-38.91-12.32-39.61-38.03-.31-11.65-.59-23.37.28-34.95,1.4-19.21,13.93-32.54,32.29-32.64,72.29-.42,144.57-.14,216.9-.03,1.61,0,3.22.91,5.84,1.71v103.99ZM359.62,38.81c17.11-23.44,50.28-28.97,77.92-17.25,23.27,9.87,38.52,34.88,36.67,60.25-2.1,28.31-19.52,49.68-46.81,56.33-6.68,1.64-13.82,1.68-20.78,1.71-36.07.14-72.18.07-113.22.07,23.55-36.28,43.35-69.84,66.23-101.12ZM509.34,481.38c-.14,40.62-20.82,60.88-61.69,60.92-52.38.04-104.76,0-158.43,0v-262.17h218.99c.42,5.67,1.12,10.74,1.12,15.81.07,61.83.17,123.62,0,185.44ZM544.04,229.18c-1.26,19.28-13.75,32.82-31.98,32.92-72.88.38-145.76,0-218.61-.18-1.05,0-2.1-.8-4.62-1.82v-102.34c4.76-.49,8.68-1.22,12.63-1.22,68.79-.07,137.58-.21,206.4.04,21.8.04,35.02,12.6,36.25,34.15.73,12.77.77,25.68-.07,38.45Z"/>
</svg>