<?xml version="1.0" encoding="UTF-8"?>
<svg id="Layer_1" data-name="Layer 1" xmlns="http://www.w3.org/2000/svg" version="1.1" viewBox="0 0 18.53 25.26">
  <defs>
    <style>
      .cls-1 {
        fill: none;
        stroke: #231f20;
        stroke-linecap: round;
        stroke-linejoin: round;
        stroke-width: .72px;
      }
    </style>
  </defs>
  <rect class="cls-1" x=".01" y="21.89" width="18.52" height="3.37"/>
  <path class="cls-1" d="M17.69,21.89H.85v-13.47C.85,3.77,4.62,0,9.27,0s8.42,3.77,8.42,8.42v13.47Z"/>
  <path class="cls-1" d="M4.22,21.89v-13.47c0-2.79,2.27-5.05,5.05-5.05s5.05,2.27,5.05,5.05v13.47H4.22Z"/>
  <line class="cls-1" x1="8.43" y1="1.68" x2="8.43" y2="1.68"/>
  <line class="cls-1" x1="10.12" y1="1.68" x2="10.12" y2="1.68"/>
  <line class="cls-1" x1="8.43" y1="23.57" x2="8.43" y2="23.57"/>
  <line class="cls-1" x1="6.75" y1="23.57" x2="6.75" y2="23.57"/>
  <line class="cls-1" x1="5.06" y1="23.57" x2="5.06" y2="23.57"/>
  <line class="cls-1" x1="3.38" y1="23.57" x2="3.38" y2="23.57"/>
  <line class="cls-1" x1="2.54" y1="20.21" x2="2.54" y2="20.21"/>
  <line class="cls-1" x1="2.54" y1="18.52" x2="2.54" y2="18.52"/>
  <line class="cls-1" x1="2.54" y1="16.84" x2="2.54" y2="16.84"/>
  <line class="cls-1" x1="2.54" y1="15.15" x2="2.54" y2="15.15"/>
  <line class="cls-1" x1="2.54" y1="13.47" x2="2.54" y2="13.47"/>
  <line class="cls-1" x1="2.54" y1="11.79" x2="2.54" y2="11.79"/>
  <line class="cls-1" x1="2.54" y1="10.1" x2="2.54" y2="10.1"/>
  <line class="cls-1" x1="2.54" y1="8.42" x2="2.54" y2="8.42"/>
  <line class="cls-1" x1="2.75" y1="6.74" x2="2.75" y2="6.74"/>
  <line class="cls-1" x1="3.59" y1="5.05" x2="3.59" y2="5.05"/>
  <line class="cls-1" x1="4.85" y1="3.37" x2="4.85" y2="3.37"/>
  <line class="cls-1" x1="6.75" y1="2.1" x2="6.75" y2="2.1"/>
  <line class="cls-1" x1="15.8" y1="20.21" x2="15.8" y2="20.21"/>
  <line class="cls-1" x1="15.8" y1="18.52" x2="15.8" y2="18.52"/>
  <line class="cls-1" x1="15.8" y1="16.84" x2="15.8" y2="16.84"/>
  <line class="cls-1" x1="15.8" y1="15.15" x2="15.8" y2="15.15"/>
  <line class="cls-1" x1="15.8" y1="13.47" x2="15.8" y2="13.47"/>
  <line class="cls-1" x1="15.8" y1="11.79" x2="15.8" y2="11.79"/>
  <line class="cls-1" x1="15.8" y1="10.1" x2="15.8" y2="10.1"/>
  <line class="cls-1" x1="15.8" y1="8.42" x2="15.8" y2="8.42"/>
  <line class="cls-1" x1="15.59" y1="6.74" x2="15.59" y2="6.74"/>
  <line class="cls-1" x1="14.75" y1="5.05" x2="14.75" y2="5.05"/>
  <line class="cls-1" x1="13.48" y1="3.37" x2="13.48" y2="3.37"/>
  <line class="cls-1" x1="11.59" y1="2.1" x2="11.59" y2="2.1"/>
  <line class="cls-1" x1="1.7" y1="23.57" x2="1.7" y2="23.57"/>
  <line class="cls-1" x1="10.12" y1="23.57" x2="10.12" y2="23.57"/>
  <line class="cls-1" x1="11.8" y1="23.57" x2="11.8" y2="23.57"/>
  <line class="cls-1" x1="13.48" y1="23.57" x2="13.48" y2="23.57"/>
  <line class="cls-1" x1="15.17" y1="23.57" x2="15.17" y2="23.57"/>
  <line class="cls-1" x1="16.85" y1="23.57" x2="16.85" y2="23.57"/>
  <line class="cls-1" x1="6.75" y1="15.15" x2="11.8" y2="10.1"/>
  <line class="cls-1" x1="6.75" y1="12.21" x2="8.85" y2="10.1"/>
  <line class="cls-1" x1="9.69" y1="15.15" x2="11.8" y2="13.05"/>
</svg>