<?xml version="1.0" encoding="UTF-8"?>
<svg id="Layer_1" data-name="Layer 1" xmlns="http://www.w3.org/2000/svg" version="1.1" viewBox="0 0 21.17 20.07">
  <defs>
    <style>
      .cls-1 {
        fill: #fff;
      }

      .cls-1, .cls-2 {
        stroke: #231f20;
        stroke-linecap: round;
        stroke-linejoin: round;
        stroke-width: .45px;
      }

      .cls-2 {
        fill: none;
      }
    </style>
  </defs>
  <path class="cls-2" d="M21.16,10.37c-.1-1.52-1.44-2.71-2.96-2.64-1.44.07-2.45,1.23-2.71,2.65-.16.88-.51,3.55-.51,3.55H6.19s-.34-2.67-.51-3.55c-.26-1.42-1.28-2.58-2.71-2.65C1.45,7.66.11,8.85,0,10.37c-.1,1.48.94,2.74,2.32,2.99l.35,2.22c.15.95.96,1.65,1.92,1.65h11.97c.96,0,1.77-.7,1.92-1.65l.35-2.22c1.39-.25,2.43-1.51,2.32-2.99Z"/>
  <line class="cls-2" x1="5.8" y1="11.1" x2="15.37" y2="11.1"/>
  <polyline class="cls-2" points="4.6 17.22 3.4 20.07 4.35 20.07 6.61 17.22"/>
  <polyline class="cls-2" points="16.57 17.22 17.77 20.07 16.82 20.07 14.56 17.22"/>
  <path class="cls-2" d="M18.2,7.73l.92-5.22c.23-1.31-.77-2.51-2.1-2.51H4.15c-1.33,0-2.33,1.2-2.1,2.51l.92,5.22"/>
  <path class="cls-1" d="M14.3,4.61c0,.38-.31.69-.69.69s-.69-.31-.69-.69.31-.69.69-.69.69.31.69.69Z"/>
  <circle class="cls-1" cx="18.33" cy="10.57" r=".58"/>
  <circle class="cls-1" cx="2.84" cy="10.57" r=".58"/>
  <path class="cls-1" d="M6.87,4.61c0,.38.31.69.69.69s.69-.31.69-.69-.31-.69-.69-.69-.69.31-.69.69Z"/>
</svg>